<svg xmlns="http://www.w3.org/2000/svg" viewBox="0 10.550000190734863 517.3499755859375 38.25" data-asc="0.968" width="517.3499755859375" height="38.25"><defs/><g fill="#000000"><g transform="translate(0, 0)"><path d="M0 48.40L0 13.40L4.10 13.40L19.80 39.85L17.60 39.85L33.10 13.40L37.20 13.40L37.25 48.40L32.45 48.40L32.40 20.95L33.55 20.95L19.75 44.15L17.45 44.15L3.55 20.95L4.80 20.95L4.80 48.40L0 48.40ZM63.50 48.40L63.50 42.80L63.25 41.75L63.25 32.20Q63.25 29.15 61.48 27.47Q59.70 25.80 56.15 25.80Q53.80 25.80 51.55 26.57Q49.30 27.35 47.75 28.65L45.75 25.05Q47.80 23.40 50.67 22.52Q53.55 21.65 56.70 21.65Q62.15 21.65 65.10 24.30Q68.05 26.95 68.05 32.40L68.05 48.40L63.50 48.40M54.80 48.70Q51.85 48.70 49.63 47.70Q47.40 46.70 46.20 44.92Q45 43.15 45 40.90Q45 38.75 46.02 37Q47.05 35.25 49.38 34.20Q51.70 33.15 55.65 33.15L64.05 33.15L64.05 36.60L55.85 36.60Q52.25 36.60 51 37.80Q49.75 39 49.75 40.70Q49.75 42.65 51.30 43.82Q52.85 45 55.60 45Q58.30 45 60.33 43.80Q62.35 42.60 63.25 40.30L64.20 43.60Q63.25 45.95 60.85 47.32Q58.45 48.70 54.80 48.70ZM86.05 48.70Q82.05 48.70 79.85 46.55Q77.65 44.40 77.65 40.40L77.65 16.10L82.45 16.10L82.45 40.20Q82.45 42.35 83.53 43.50Q84.60 44.65 86.60 44.65Q88.85 44.65 90.35 43.40L91.85 46.85Q90.75 47.80 89.23 48.25Q87.70 48.70 86.05 48.70M73.15 25.85L73.15 21.90L90.05 21.90L90.05 25.85L73.15 25.85ZM106.75 48.70Q102.75 48.70 100.55 46.55Q98.35 44.40 98.35 40.40L98.35 16.10L103.15 16.10L103.15 40.20Q103.15 42.35 104.23 43.50Q105.30 44.65 107.30 44.65Q109.55 44.65 111.05 43.40L112.55 46.85Q111.45 47.80 109.93 48.25Q108.40 48.70 106.75 48.70M93.85 25.85L93.85 21.90L110.75 21.90L110.75 25.85L93.85 25.85ZM132.50 48.40L132.50 13.40L147.25 13.40Q152.85 13.40 157.13 15.60Q161.40 17.80 163.78 21.75Q166.15 25.70 166.15 30.90Q166.15 36.10 163.78 40.05Q161.40 44 157.13 46.20Q152.85 48.40 147.25 48.40L132.50 48.40M137.50 44.05L146.95 44.05Q151.30 44.05 154.48 42.40Q157.65 40.75 159.40 37.77Q161.15 34.80 161.15 30.90Q161.15 26.95 159.40 24.00Q157.65 21.05 154.48 19.40Q151.30 17.75 146.95 17.75L137.50 17.75L137.50 44.05ZM189.55 48.40L189.55 42.80L189.30 41.75L189.30 32.20Q189.30 29.15 187.53 27.47Q185.75 25.80 182.20 25.80Q179.85 25.80 177.60 26.57Q175.35 27.35 173.80 28.65L171.80 25.05Q173.85 23.40 176.73 22.52Q179.60 21.65 182.75 21.65Q188.20 21.65 191.15 24.30Q194.10 26.95 194.10 32.40L194.10 48.40L189.55 48.40M180.85 48.70Q177.90 48.70 175.68 47.70Q173.45 46.70 172.25 44.92Q171.05 43.15 171.05 40.90Q171.05 38.75 172.08 37Q173.10 35.25 175.43 34.20Q177.75 33.15 181.70 33.15L190.10 33.15L190.10 36.60L181.90 36.60Q178.30 36.60 177.05 37.80Q175.80 39 175.80 40.70Q175.80 42.65 177.35 43.82Q178.90 45 181.65 45Q184.35 45 186.38 43.80Q188.40 42.60 189.30 40.30L190.25 43.60Q189.30 45.95 186.90 47.32Q184.50 48.70 180.85 48.70ZM217.15 21.65Q220.40 21.65 222.88 22.90Q225.35 24.15 226.75 26.70Q228.15 29.25 228.15 33.15L228.15 48.40L223.35 48.40L223.35 33.70Q223.35 29.85 221.48 27.90Q219.60 25.95 216.20 25.95Q213.65 25.95 211.75 26.95Q209.85 27.95 208.83 29.90Q207.80 31.85 207.80 34.75L207.80 48.40L203.00 48.40L203.00 21.90L207.60 21.90L207.60 29.05L206.85 27.15Q208.15 24.55 210.85 23.10Q213.55 21.65 217.15 21.65ZM237.05 48.40L237.05 21.90L241.85 21.90L241.85 48.40L237.05 48.40M239.45 16.80Q238.05 16.80 237.13 15.90Q236.20 15 236.20 13.70Q236.20 12.35 237.13 11.45Q238.05 10.55 239.45 10.55Q240.85 10.55 241.78 11.42Q242.70 12.30 242.70 13.60Q242.70 14.95 241.80 15.88Q240.90 16.80 239.45 16.80ZM262.80 48.70Q258.55 48.70 255.33 46.95Q252.10 45.20 250.33 42.15Q248.55 39.10 248.55 35.15Q248.55 31.20 250.28 28.15Q252.00 25.10 255.03 23.37Q258.05 21.65 261.85 21.65Q265.70 21.65 268.65 23.35Q271.60 25.05 273.28 28.12Q274.95 31.20 274.95 35.30Q274.95 35.60 274.93 36Q274.90 36.40 274.85 36.75L252.30 36.75L252.30 33.30L272.35 33.30L270.40 34.50Q270.45 31.95 269.35 29.95Q268.25 27.95 266.33 26.82Q264.40 25.70 261.85 25.70Q259.35 25.70 257.40 26.82Q255.45 27.95 254.35 29.97Q253.25 32.00 253.25 34.60L253.25 35.40Q253.25 38.05 254.48 40.13Q255.70 42.20 257.90 43.35Q260.10 44.50 262.95 44.50Q265.30 44.50 267.23 43.70Q269.15 42.90 270.60 41.30L273.25 44.40Q271.45 46.50 268.78 47.60Q266.10 48.70 262.80 48.70ZM281.60 48.40L281.60 11.30L286.40 11.30L286.40 48.40L281.60 48.40ZM319.90 48.80Q315.90 48.80 312.25 47.57Q308.60 46.35 306.50 44.40L308.35 40.50Q310.35 42.25 313.45 43.40Q316.55 44.55 319.90 44.55Q322.95 44.55 324.85 43.85Q326.75 43.15 327.65 41.92Q328.55 40.70 328.55 39.15Q328.55 37.35 327.38 36.25Q326.20 35.15 324.32 34.47Q322.45 33.80 320.20 33.30Q317.95 32.80 315.68 32.13Q313.40 31.45 311.52 30.40Q309.65 29.35 308.50 27.57Q307.35 25.80 307.35 23.00Q307.35 20.30 308.77 18.02Q310.20 15.75 313.18 14.38Q316.15 13 320.75 13Q323.80 13 326.80 13.80Q329.80 14.60 332 16.10L330.35 20.10Q328.10 18.60 325.60 17.92Q323.10 17.25 320.75 17.25Q317.80 17.25 315.90 18.00Q314 18.75 313.13 20.00Q312.25 21.25 312.25 22.80Q312.25 24.65 313.43 25.75Q314.60 26.85 316.47 27.50Q318.35 28.15 320.60 28.67Q322.85 29.20 325.13 29.85Q327.40 30.50 329.27 31.55Q331.15 32.60 332.30 34.35Q333.45 36.10 333.45 38.85Q333.45 41.50 332 43.77Q330.55 46.05 327.52 47.42Q324.50 48.80 319.90 48.80ZM341.20 48.70Q339.80 48.70 338.80 47.73Q337.80 46.75 337.80 45.25Q337.80 43.75 338.80 42.80Q339.80 41.85 341.20 41.85Q342.55 41.85 343.52 42.80Q344.50 43.75 344.50 45.25Q344.50 46.75 343.52 47.73Q342.55 48.70 341.20 48.70ZM381.35 48.80Q377.30 48.80 373.90 47.48Q370.50 46.15 368 43.73Q365.50 41.30 364.10 38.05Q362.70 34.80 362.70 30.90Q362.70 27.00 364.10 23.75Q365.50 20.50 368.03 18.07Q370.55 15.65 373.95 14.32Q377.35 13 381.45 13Q385.60 13 389.05 14.35Q392.50 15.70 394.90 18.40L391.80 21.50Q389.65 19.40 387.13 18.42Q384.60 17.45 381.65 17.45Q378.65 17.45 376.07 18.45Q373.50 19.45 371.63 21.25Q369.75 23.05 368.73 25.52Q367.70 28.00 367.70 30.90Q367.70 33.75 368.73 36.22Q369.75 38.70 371.63 40.52Q373.50 42.35 376.05 43.35Q378.60 44.35 381.60 44.35Q384.40 44.35 386.98 43.47Q389.55 42.60 391.75 40.55L394.60 44.35Q392 46.55 388.53 47.67Q385.05 48.80 381.35 48.80M389.80 43.70L389.80 30.70L394.60 30.70L394.60 44.35L389.80 43.70ZM419.90 48.40L419.90 42.80L419.65 41.75L419.65 32.20Q419.65 29.15 417.88 27.47Q416.10 25.80 412.55 25.80Q410.20 25.80 407.95 26.57Q405.70 27.35 404.15 28.65L402.15 25.05Q404.20 23.40 407.08 22.52Q409.95 21.65 413.10 21.65Q418.55 21.65 421.50 24.30Q424.45 26.95 424.45 32.40L424.45 48.40L419.90 48.40M411.20 48.70Q408.25 48.70 406.03 47.70Q403.80 46.70 402.60 44.92Q401.40 43.15 401.40 40.90Q401.40 38.75 402.43 37Q403.45 35.25 405.78 34.20Q408.10 33.15 412.05 33.15L420.45 33.15L420.45 36.60L412.25 36.60Q408.65 36.60 407.40 37.80Q406.15 39 406.15 40.70Q406.15 42.65 407.70 43.82Q409.25 45 412.00 45Q414.70 45 416.73 43.80Q418.75 42.60 419.65 40.30L420.60 43.60Q419.65 45.95 417.25 47.32Q414.85 48.70 411.20 48.70ZM433.35 48.40L433.35 21.90L437.95 21.90L437.95 29.10L437.50 27.30Q438.60 24.55 441.20 23.10Q443.80 21.65 447.60 21.65L447.60 26.30Q447.30 26.25 447.03 26.25Q446.75 26.25 446.50 26.25Q442.65 26.25 440.40 28.55Q438.15 30.85 438.15 35.20L438.15 48.40L433.35 48.40ZM465.40 48.70Q461.35 48.70 458.18 46.95Q455 45.20 453.20 42.15Q451.40 39.10 451.40 35.15Q451.40 31.20 453.20 28.15Q455 25.10 458.18 23.37Q461.35 21.65 465.40 21.65Q469 21.65 471.82 23.07Q474.65 24.50 476.20 27.30L472.55 29.65Q471.25 27.70 469.38 26.77Q467.50 25.85 465.35 25.85Q462.75 25.85 460.70 27.00Q458.65 28.15 457.45 30.22Q456.25 32.30 456.25 35.15Q456.25 38 457.45 40.10Q458.65 42.20 460.70 43.35Q462.75 44.50 465.35 44.50Q467.50 44.50 469.38 43.57Q471.25 42.65 472.55 40.70L476.20 43Q474.65 45.75 471.82 47.23Q469 48.70 465.40 48.70ZM482.40 48.40L482.40 21.90L487.20 21.90L487.20 48.40L482.40 48.40M484.80 16.80Q483.40 16.80 482.48 15.90Q481.55 15 481.55 13.70Q481.55 12.35 482.48 11.45Q483.40 10.55 484.80 10.55Q486.20 10.55 487.13 11.42Q488.05 12.30 488.05 13.60Q488.05 14.95 487.15 15.88Q486.25 16.80 484.80 16.80ZM512.80 48.40L512.80 42.80L512.55 41.75L512.55 32.20Q512.55 29.15 510.78 27.47Q509 25.80 505.45 25.80Q503.10 25.80 500.85 26.57Q498.60 27.35 497.05 28.65L495.05 25.05Q497.10 23.40 499.98 22.52Q502.85 21.65 506 21.65Q511.45 21.65 514.40 24.30Q517.35 26.95 517.35 32.40L517.35 48.40L512.80 48.40M504.10 48.70Q501.15 48.70 498.93 47.70Q496.70 46.70 495.50 44.92Q494.30 43.15 494.30 40.90Q494.30 38.75 495.32 37Q496.35 35.25 498.68 34.20Q501 33.15 504.95 33.15L513.35 33.15L513.35 36.60L505.15 36.60Q501.55 36.60 500.30 37.80Q499.05 39 499.05 40.70Q499.05 42.65 500.60 43.82Q502.15 45 504.90 45Q507.60 45 509.63 43.80Q511.65 42.60 512.55 40.30L513.50 43.60Q512.55 45.95 510.15 47.32Q507.75 48.70 504.10 48.70Z"/></g></g></svg>